<svg xmlns="http://www.w3.org/2000/svg" xmlns:xlink="http://www.w3.org/1999/xlink" xml:space="preserve" width="7.80634in" height="4.14558in" style="shape-rendering:geometricPrecision; text-rendering:geometricPrecision; image-rendering:optimizeQuality; fill-rule:evenodd; clip-rule:evenodd" viewBox="0 0 7993.42 4244.93">
 <defs>
  <style type="text/css">
   <![CDATA[
    .fil0 {fill:#D9D9D9}
   ]]>
  </style>
 </defs>
 <g id="Layer_x0020_1">
  <metadata id="CorelCorpID_0Corel-Layer"></metadata>
  <g id="_2191536665904">
   <path class="fil0" d="M4895.19 2518.19c-33.79,-47.97 -70.48,-50.14 -87.07,-125.21 -27.11,-122.78 24.8,-176.89 -64.1,-339.7 -22.45,-41.1 -66.55,-72.85 -109.32,-96.98 -70.75,30.45 -63.87,65.12 -123.55,97.89 -31.08,-4.67 -53.08,-16.55 -87.16,-16.69l-288.94 4.63c-124.23,-0.57 -271.29,-8.99 -396.23,0.4l-2.17 290.98 -82.63 4.63 0.48 499.71 -71.34 4.13c-21.84,24.86 -30.22,59.18 -45.11,88.81 -35.49,70.62 -9.4,37.73 -16.04,97.26l-31.09 20.56c14.57,96.95 0.82,45.47 -21.63,122.44l49.21 17.56c24.99,143.9 -8.6,111.59 49.33,165.45l-8.36 50.92c92.49,70.67 67.36,129.16 62.4,226.5 37.33,26.08 55.75,4.58 67.3,73.1 135.04,17.37 48.69,68.09 118.65,123.94 29.82,23.81 45.52,23.69 59.22,62.32 18.38,51.84 -7.53,44.11 39.33,75.23 110.01,73.06 0.06,244.59 263.67,170.62 65.41,99.76 29.9,89.39 157.94,97.97 79.51,5.34 -17.6,19.21 88.09,1.62 39.56,-6.59 65.32,-0.94 106.03,-14.82 58.29,-36.66 -35.86,-96.02 189.29,-84.34 -19.99,-127.7 -15.29,-47.94 -61.73,-109.73 -36.93,-49.16 -3.37,-65.9 -33.21,-115.08 -10.21,-16.81 -23.37,-27.09 -34.17,-44.64 -38.91,-63.24 -30.08,-72.61 -120.3,-106.26l11.38 -70.29c34.09,-3.12 50.17,0.64 79.93,-10.88 10.11,-80.29 -8.52,-209.66 27.61,-279.32l33.29 1.83c2.15,-75.6 34.13,-199.96 104.77,-234.55 12.14,-72.82 26.82,-106.6 27.09,-183.23 0.22,-59.71 7.86,-124.96 20.87,-180.6 13.56,-58.09 0.54,-128.21 38.6,-172.82 26.63,-31.2 74.47,-79.45 89.65,-113.38z"></path>
   <path class="fil0" d="M2398.15 1524.26c-9.17,-101.17 6.35,-271.22 -24.54,-354.81 -22.27,-60.26 -2.86,-84.34 -25.56,-158.76 -18.78,-61.61 0.05,-79.79 -47.09,-135.9 -20.81,-24.77 -27.11,-27.07 -35.82,-60.31 -26.41,-100.79 -98.78,-15.27 -17.84,-181.53 39.76,-81.68 26.24,-73.66 24.08,-158.37 -1.59,-62.8 20.34,-90.93 31.23,-144.05 -57.6,-27.88 -179.19,-33.27 -239.29,-13.46 -60.74,20.02 -183.68,10.97 -257.95,21.39 -244.29,34.29 -162.19,73.12 -295.23,126.25 -34.98,13.96 -54.96,36.45 -80.43,62.14 -8.95,62.54 6.91,137.2 10.37,201.9 4.33,81.03 57.21,103.84 26.84,166.3 -76.64,28.75 -99.11,-34.86 -168.45,49.54 -55.36,67.4 -9.7,87.65 -96.11,122 -65.2,25.92 -67.45,76.58 -114.55,103.86l-170.96 49c-84.04,120.46 -79.89,-54.17 -80.14,262.84 28.36,11.74 169.69,133.79 199.15,167.8l133.23 111.73c58.09,71.08 109.17,112.16 187.99,170.43 48.36,35.75 79.66,76.19 129.99,114.68l126.06 118.79c42.27,37.79 60.95,106.83 113.88,131.35 86.48,40.08 104.61,34.02 101.07,136.78 48.84,-7.08 97.19,-17.14 145.67,-25.94 55.33,-10.04 76.86,-1.28 113.42,-45.78 48.53,-59.06 88,-120.95 142.82,-171.22 73.18,-67.1 149.84,-103.08 175.01,-140.61 27.93,-41.64 58.39,-38.99 90.23,-66.09 17.73,-15.08 56.55,-56.74 77.78,-77.68l-21.98 -78.67 -108.5 -18.42c-39.21,-64.61 -21.67,-90.5 -60.95,-149.22 -52.89,-79.07 -27.03,-71.56 16.55,-135.97z"></path>
   <path class="fil0" d="M4783.93 981.87c15.08,16.61 17.1,19.68 18.58,44.66 -4.4,188.64 -55.39,126.8 -106.06,167.44 -52.45,80.5 -52.41,55.27 -144.75,43.66l-2.37 136.93c58.6,30.51 167.4,253.37 207.45,323.5 19.8,34.68 7.52,63.45 29.28,101.59 42.88,75.16 92.55,-3.03 154.41,239.05 19.78,77.44 -1.12,158.57 42.46,220.54 34.65,49.28 84.32,45 128,134.26 25.27,51.61 149.49,319.83 186.03,336.72 20.61,-24.45 7.24,-10.29 0.52,-51.9 -18.85,-116.54 97.4,-75.75 105.97,-74.7 49.53,6.04 62.66,-23.21 108.46,-7.1 42.5,14.97 34.28,27.78 92.49,33.11 64.3,5.89 38.43,5.62 83.06,27.29 16.59,-58.64 61.99,-119.04 104.28,-158.34 49.96,-46.43 133.31,-43.1 197.82,-52.29 138,-19.65 252.92,-68.91 362.25,-149.1 10.63,-42.66 38.27,-187.29 31.86,-222.99 -49.59,-85.93 -149.29,-22.73 -244.04,-79.61 -112.72,-67.67 -126.44,-175.06 -132.76,-182.51 -51.14,-32.36 -65.48,-7.53 -77.34,-83.99l-0.52 -81.73 17.94 81.32c27.29,35.52 4.6,46.27 68.36,57.03l7.42 -194.82c-72.41,10.35 -47.38,1.37 -67.96,31.67 -18.31,26.94 -26.98,-1.88 -47.05,-33.72 -14.1,-22.37 -8.27,-38.8 -20.11,-58.08 -47.32,-77 -106.57,-79.14 -136.13,-160.37 -20.3,-55.82 -54.38,-42.76 -105.33,-46.86l-27.28 -55.54c-412.72,20.66 -259.25,-186.62 -674.36,-335.79 -83.86,10.25 -57.84,7.16 -160.58,50.63z"></path>
   <path class="fil0" d="M6082.5 1466.18c45.22,37.7 8.34,-9.84 54.74,49.15 62.08,78.93 256.89,62.44 285.67,-19.87 89.42,41.82 11.15,166.35 161.36,184.18 258.64,30.69 90.65,10.61 289.79,55.65 -6.38,-65.15 -8.78,-94.28 22.17,-152.5 28.42,-53.45 39.11,-47.14 89.21,-76.14l-35.86 -41.64c-35.25,-67.5 34.31,-82.58 -70.15,-140.23 -56.99,-31.44 -85.32,-118.14 -111.29,-176.62 47.53,-39.31 59.05,-96.72 43.42,-157.17 -78.27,-34.31 -69.07,-18.64 -92.61,-107.65 -12.27,-46.42 -18.36,-148.11 -29.71,-172.41 -43.72,-93.56 12.21,-67.72 9.56,-157.25 -1.81,-61.17 -14.35,-125.23 -17.08,-186.85 -157.86,-10.6 -92.18,-95.63 -250.35,-124.52 -131.84,-24.08 -55.2,-100.3 -281.6,-35.88l-24.23 63.96 -48.87 14.34c1.34,34.63 9.12,19.12 -0.11,44.53 -258.42,87.14 -279.18,-17.05 -340.92,-47.48 -135.68,-66.87 -66.05,-52.15 -111.44,-115.18 -40.43,-56.17 -40.02,28.72 -64.92,-153 -101.72,7.38 -96.71,83.64 -156.13,89.77 -50.17,5.16 -34.2,-10.81 -83.02,25.65 -28.71,21.44 -43.87,39.22 -50.81,76.39l119.43 231.85c91.33,14.07 77.33,85.64 40.99,152.03 -61.49,112.35 52.57,172.55 77.16,201.14 35.02,40.72 41.58,36.04 85.87,63.51 93.93,58.29 -5.51,85.71 90.28,215.23 49.01,66.27 24.61,36.18 89.45,68.78 242.21,121.76 63.32,122.59 310.01,328.24z"></path>
   <path class="fil0" d="M3667.29 999.46c28.32,-54.98 107.33,-98.59 -128.52,-130.2 -27.03,-117.2 -193.98,-81.24 -255.83,-13.14 -87,95.81 56.54,189.05 -92.52,247.77 -57.08,-43.67 -102.46,-91.4 -180.5,-109.34 -133.5,-30.67 -98.14,-13.49 -143.11,-133.21l-71.17 -36.1c-22.95,-10.75 -51.84,-21.59 -77.19,-23.13 -35.58,-2.16 -62.9,13.92 -92.46,8.47 -28.82,-5.33 -33.33,-21.94 -59.8,-24.26 -24.16,94.34 24.09,58.27 -130.39,173.09 17.12,73.42 32.2,133.44 -51.15,169.38 14.02,89.63 24.77,-2.05 36.94,246.23 1.33,27.41 0.22,44.12 -1.42,70.8 -2.83,45.77 3.52,29.98 7.82,62.96 6.17,47.25 -24.36,50.46 -45.14,85.44 0.98,7.46 72.04,175.35 75.8,181.04 39.81,35.29 80.3,-44.17 142.69,127.24 92.64,10.65 115.82,71.1 186.74,110.64 55.42,-23.9 98.01,-71.13 150.49,-103.34 36.44,36.02 49.45,33.1 90.34,56.22 38.64,21.85 44.13,40.5 79.5,60.8 64.46,37 112.48,62.23 173.01,106.63 51.01,37.42 304.13,210.83 348.24,226l12.63 -41.02 77.33 -5.66c5.23,-117.62 -1.47,-241.9 -4.78,-359.95 -3.29,-117.07 1.53,-235.08 -1.71,-349.55 -1.59,-56.61 -22.21,-94.27 -23.82,-148.65l-3.95 -260.6c-3.97,-24.44 -18.09,-34.1 -17.6,-63.9 1.2,-73.41 46.66,-20.19 -0.46,-130.69z"></path>
   <path class="fil0" d="M7379.46 660.45c11.47,-34.26 -12.67,-30.17 20.75,-31.23l-12.71 -50.19c-34.63,-41.86 -25.94,-35.04 -15.71,-88.34 35.48,-0.05 46.63,3.49 73.94,-19.24 -0.54,-36.37 -13.59,-14.6 -11.25,-61.96 3.27,-66.21 10.49,-142.4 62.38,-185.3 31.2,-25.79 28.82,-9.29 62.93,-24.32 16.81,-7.41 114.91,-72.75 195.69,-53.22 -85.3,21.01 -159.34,56.39 -233.56,102.09 -96.95,59.67 -40.4,200.39 -55.34,245.49l-84.33 12.9 17.89 73.55 18.4 52.37 -22.22 34.23c-11.15,111.41 -5.96,98.26 -118.22,89.67 -7.32,24.68 -19.03,35.47 -17.35,55.35 3.07,36.26 12.56,17.41 4.87,65.96 -69.63,41.37 -42.91,21.07 -88.55,84.82 -55.93,78.1 -32.24,21.08 -42.57,126.1 -39.72,24.91 -49.71,22.83 -57.79,71.05 -151.58,-5.37 -150.78,43.6 -247.02,47.63 21.86,120.21 84.03,75.33 120.93,133.08 26.62,41.64 1.4,72.07 17.77,105.33l54.57 54.61c-74.96,89.03 -129.31,19.97 -131.88,266.97 50.85,-7.4 17.28,-24.64 104.15,-31.36 90.46,-6.99 200.62,-76.61 204.42,-77.86 29.24,-9.61 73.1,-19.89 103.85,-28.58l50.01 103.98c112.98,9.58 88.44,106.01 161.85,57.55 30.01,-19.81 -7.17,-60.24 151.31,-71.6l-26.86 -113.34c-65.91,-34.46 -55.81,-11.5 -57.16,-99.88 -29.05,-29.15 -58.93,-45.61 -35.13,-95.14 10.98,-22.84 18.99,-20.17 29.09,-49.92 6.17,-18.19 9.8,-35.75 16.54,-56.31 65.09,-1.69 43.7,7.27 87.98,-36.19l-14.55 -26.97 24.03 -20.43 0.89 -19.5c-20.52,-1.94 -8.32,7.06 -14.77,-12.32l37.71 -6.7c10.44,-27.47 27.28,-37.08 43.88,-59.93 34.43,-47.38 -2.78,-22.23 14.46,-77.17l66.87 -16.5c2.57,-62.95 -15.27,-109.95 9.04,-166.19 17.25,-39.91 18.23,-96.68 -15.99,-124.39 -37.55,-30.4 -60.45,-20.57 -85.13,-80.45 -119.11,-289.29 22.95,-73.25 245.86,-428.88 -31.34,-29.96 -67.65,-48.79 -104.72,-71.9 -52.36,-32.66 -57.32,-45.34 -121.31,-13.26 -0.77,-1.06 -1.29,-3.23 -1.37,-3.68 -10.62,-59.97 -35.25,1.4 -3.88,-63.77 -36.06,3.29 -124.06,15.39 -145.42,39.3 -35.37,39.59 -41.58,65.71 -101.17,39.15 -33.78,-68.46 16,-141.27 -104.78,-155.62 -3.46,40.99 -11.62,38.79 -17.71,68.61 -9,44.06 13.34,11.24 4.22,47.32 -32.14,8.73 -21.49,-5.85 -59.56,13.46l-0.54 52.25 -50.63 -20.5 -46.48 58.37c-22.3,-20.99 -95.55,-39.7 -97.44,-39.93 -28.96,-3.68 -21.52,12.35 -50.33,11.12 -24.45,-1.04 -11.15,-10.97 -52.6,-9.8 -10.3,17.91 6.67,11.22 -11.73,28.67 -20.39,19.34 -23.07,3.81 -42.2,20.26 -25.18,21.66 -3.16,55.08 -15.45,90.4 -29.32,24.43 -66.49,26.48 -88.8,58.62 -22.52,32.44 -18.02,66.09 -37.5,102.36 -28.11,6.33 -98.57,-7.43 -122.92,-0.95 -33.86,54.09 12.09,88.56 2.62,142.08 -11.78,66.53 -53.48,24.55 -4.27,127.62 24.42,51.16 1.55,87.46 25.47,149.84 31.13,81.21 17.35,49.62 96.56,63.19l-0.73 141.44c-32.6,33.95 -37.67,11.2 -39.65,63.34 113.18,24.63 112.43,-40.07 269.48,-32.14 7.57,-40.85 16.61,-46.93 46.81,-71.86 2.66,-63.57 -1.19,-46.45 35.38,-90.29 34.83,-41.74 22.12,-38.17 35.42,-88.25l47.84 -13.08c35.7,-93.46 -31.47,-134.14 109.01,-121.11 38.55,-29.25 36.58,-43.53 34.42,-90.59z"></path>
   <path class="fil0" d="M997.81 1646.72c-21.59,-39.9 -133.49,-115.34 -179.15,-143.04 6.38,100.49 13.46,127.8 -94.73,128.35 -47.49,0.25 -157.63,-9.69 -195.3,10.05 -15.92,73.75 10.38,187.72 -10.52,253.37 -45.08,40.79 -73.06,21.93 -93.72,109.44 -12.84,54.38 -2.31,128.35 -10.53,192.85l-402.93 3.68 -10.93 67.17c23.06,36.03 36,49.82 19.56,100.22 -17.55,53.81 11.44,30.92 16.49,90.85 6.22,73.83 -25.78,212.07 -0.65,269.72 83.21,24.6 152.01,-23.48 222.47,31 41.69,32.25 90.48,115.58 133.21,134.56 25.7,-13.05 22.86,-18.72 39.29,-43.68 67.83,-3.4 67.09,11.71 148.83,-3.78 64.9,-12.28 335.43,12.22 421.86,-4.76 46.4,-114.15 -30.47,-62.12 -17.4,-268.5 7.09,-111.89 -4.21,-197.15 -9.73,-306.92 -4.91,-97.69 -12.5,-199.99 -15.75,-296.95 -3.33,-99.22 -15.01,-212.58 -10.53,-308.15l50.17 -15.46z"></path>
   <path class="fil0" d="M3698.23 981.35c1.11,61.27 41.67,37.44 5.58,121.05 -19.19,44.46 -0.75,72.74 8.7,117.21l18.58 540.81c-1.92,72.92 -11.19,204.54 23.17,257.93l599.84 -0.59c158,-2.54 21.68,-14.71 148.31,14.57 22.48,-16.28 118.71,-100.32 126.8,-119.49 39.46,-93.6 -130.77,-286.98 -176.56,-504.06l62.37 7.98c8.72,-130.17 36.4,-318.34 -56.33,-425l-117.11 18.2c-29.47,-49.06 -101.69,-68.61 -157.82,-57.45 -67.26,13.38 -88.34,49.87 -136.16,80.43 -91.92,-22.52 -272.29,-125.29 -349.35,-51.58z"></path>
   <path class="fil0" d="M732.65 952.34c0.84,35.5 2.44,27.48 -12.74,56.14 13.79,13.21 0.7,45.68 -2.5,70.85 9.26,16.56 11.22,16.67 20.43,33.84 -23.38,49.17 -78.28,124.39 -111.4,165.12 -69.1,84.93 -152.51,77.06 -135.8,124.46 -133.55,4.29 -27.86,28.95 -158.04,150.04 -86.4,80.36 -44.02,140.54 -90.14,216.52 -20.42,33.65 -46.76,41.98 -70.75,86.8 -28.65,53.51 -41.02,120.41 -62.24,164.81 -34.07,71.28 -21.94,-16.52 -63.94,156.07 38.44,10.47 306.91,9.06 352.99,1.84 16.71,-193.21 -44.69,-194.76 104.17,-297.23 -0.48,-57 -12.77,-223.07 9.49,-262.65 49.84,-32.38 211.83,0.96 287.06,-19.31 8.85,-79.45 -4.17,-168.95 1.12,-250.6 2.91,-44.96 4.24,-68.47 39.66,-93.44 25.43,-17.94 41.7,-38.48 68.3,-53.8 63.61,-36.65 133.07,-25.26 183.76,-70.13 28.69,-25.39 35.08,-51.11 53.84,-68.9 35.94,-34.1 77.76,-7.67 93.79,-55.02 68.47,-202.28 166.63,-96.49 201.84,-139.34 20.25,-24.63 -24.73,-29.16 -21.92,-167.87 1.44,-70.67 -27.85,-103.49 -41.39,-164.26l-62.25 9.9c-40.54,-52.72 -76.23,-5.66 -133.12,-32.03 -13.65,-6.33 -17.17,-14.58 -24.39,-18.95 -29.59,-17.88 -23.32,2.08 -55.96,-22.41 -14.19,-10.64 11.47,-1.2 -17.32,-12.76 -54.06,35.88 -24.2,182.21 -173.12,255.06 -177.3,86.73 -95.18,128.12 -179.44,237.24z"></path>
   <path class="fil0" d="M5325.41 2638.2c7.85,203.89 -16.33,50.86 -37.02,189.07 -7.33,48.97 -11.93,42.83 12.21,84.55 24.88,42.99 17.45,82.77 25.1,116.27 0.56,2.43 1.12,4.64 1.8,6.91 0.08,0.31 6.67,13.99 7.95,17.46 16.26,44 3.04,104.57 34.67,132.13 25.5,22.2 117.32,21.22 162.22,-26.84 77.79,-83.25 79.73,-19.81 164.09,-62.8 24.95,-12.72 44.5,-34.85 69.86,-43.68 42.75,-14.9 39.23,-0.24 78.76,-35.23 78.43,-69.41 36.67,-43.83 139.86,-87.49 266.17,-112.63 89.9,-102.71 191.24,-176.31 5.13,-3.72 11.17,-7.59 16,-11.31l10.15 -9.47c-23.32,-60.34 -96.7,-207.12 -103.68,-259.26 -60.62,-2.39 -232.02,1.92 -277.83,37.59 -133.93,104.3 -80.61,155.78 -126.22,171.91 -5.24,0.48 -169,-40.65 -179.11,-45.78 -82.78,-41.88 -46.37,38.5 -156.89,-15.58l-33.17 17.85z"></path>
   <path class="fil0" d="M4897.42 843.39l44.03 55.64c9.46,7.87 -8.52,-45.52 208.33,109.17 94.19,67.17 202.41,274.44 403.05,227.46 34.93,-115.49 -2.88,-92.12 122.12,-113.73 -0.88,-32.07 -28.21,-71.25 -53.52,-91.98 -6.09,-94.56 24.75,-95.34 -54.87,-159.13 -47.22,-37.83 -66.11,-50.01 -103.81,-96.88 -46.99,-58.43 -71.27,-42.2 -65.7,-133.28 3.54,-58.03 30.51,-96.92 39.11,-156.65 -73.47,-58.07 -53.13,-29.68 -109.64,-115.53 -43.01,-65.35 -79.66,-66.62 -159.4,-66.5 -47.42,0.07 -48.02,8.2 -73.29,38.57 -71.14,85.46 -56.9,47.63 -53.01,281.98l-172.19 132.53 28.81 88.34z"></path>
   <path class="fil0" d="M6729.64 1990.96c-103.44,-148.21 -161.14,-111.09 -208.61,-141.29 -21.7,-13.81 -66.44,-75.59 -71.54,-105.03 -68.28,21.47 -43.28,25.85 -72.69,6.26 29.59,-27.91 20.59,-2.45 46.26,-35.71 -20.75,-19.38 -12.71,-28.36 -10.92,-60.68 -24.04,-26.12 -6.02,-12.16 -22.6,-46.32l-12.07 18.39 10 84.55c-130.85,-1.84 -136.34,15.9 -306.89,27.77l-37.31 91.35c8.01,27.19 19.82,61.21 36.38,84.74 52.94,75.22 132.82,86.48 219.48,88.25 5.76,0.12 16.14,0.13 21.65,-0.73 17.97,-2.84 8.14,-1.44 20.78,-7.35l14.24 -105.49 32.79 0.28 -32.79 -0.28c22.93,-82.99 -7.62,-195.88 53.78,-111.75 -9.74,13.2 15.2,14.25 -18.2,9.24 45.92,68.99 -36.78,129.67 -28.8,200.45 3.55,31.53 26.54,45.18 39.23,76.87 15.67,39.1 -11.05,143.78 -17.72,194.82 -15.35,117.67 -194.82,142.52 -268.1,200.9l104.51 249.68 162.76 -30.06c38.67,-62.45 -6.23,-96.44 98.09,-101.41 61.1,-90.39 0.72,-85.4 125.34,-130.62 5.37,-62.85 -33.2,-95.7 10.94,-160.83l67.88 12.26c2.95,-42.32 68.05,-92.96 78.25,-148.66 13.63,-74.31 -27.85,-150.59 -34.14,-159.6z"></path>
   <path class="fil0" d="M4625.4 704.62c-42.91,-8.86 -4.87,-23.48 20.09,-41.84l-19.69 -56.86c-88.12,-0.11 -5.13,10.53 -73.48,46.25 -13.67,29.55 -16.09,107.18 2.41,136.05 63.17,-7.05 6.48,-57.17 61.79,-76.17 4.87,7.3 19.67,-0.65 -2.86,39.54 -18.1,32.3 -15.24,10.02 -14.01,55.46l85.09 41.43c65.86,-13.86 139.91,-97.47 201.37,-138.22 24.55,-16.29 51.09,-31.92 74.63,-48.06 70.58,-48.39 57.72,-99.3 55.46,-178.77 -4.58,-161.28 34.07,-80.39 71.6,-168.49 -259.1,27.28 -118.24,32.19 -228.25,50.99 -64.24,10.97 -87.04,-19.33 -107.35,-15.62 -14.8,2.7 -25.78,15.36 -49.11,16 -40.33,1.09 -19.18,-15.81 -68.94,-5.56 -8.76,19.71 9.53,59.54 -27.12,86.05 -1.43,1.04 -3.73,1.99 -5.3,2.98l-26.63 15.14 4.81 106.15c25.57,19.21 140.87,46.47 68.4,120.29 -26.14,26.62 -6.89,21.61 -22.91,13.28z"></path>
   <path class="fil0" d="M2492.4 580.28l-4.22 -93.77 13.61 4.89 -13.61 -4.89c-4.7,-37.75 -5.14,-12.57 -16.31,-44.9 -18.48,-53.46 24.78,-64.65 41.1,-134.35l-56.76 22.46c-34.86,-38.13 -20.48,-56.63 -99.72,-43.15 -45.17,44.47 -57.35,155.02 -55.38,217.47 4.09,129.81 -94.32,192.04 -44.36,239.42 10.63,10.07 6.51,1.7 18,17.06 11.57,15.46 12.17,26.53 17.46,44.04 14.47,47.97 28.18,41.97 50.53,79.87 34.14,57.93 29.15,142.81 45.07,207.86 84.8,-87.12 -8.2,-92.24 38.23,-149.02 12.16,-14.87 59.54,-48.38 104.95,-109.98l-23.26 -148.51c-72.02,11.69 -101.94,-18.28 -41.43,-68.45 0.98,-0.81 13.53,-11.89 13.86,-12.29 19.98,-24.6 3.47,-0.2 12.25,-23.75z"></path>
   <path class="fil0" d="M4738.86 881.05c-6.37,1.82 -136.6,-36.12 -146.06,-36.97l-1.53 150.33 -32.1 220.76c45.47,8.23 78.23,17.71 112.08,-21.02 19.08,-21.83 8.74,-26.6 34.12,-43.85 19.13,-12.99 40.88,-16.06 58.85,-28.54l4.4 -50.35c-45.86,-78.89 5.35,-161.22 103.77,-151.01 -11.17,-31.48 -14.94,-40.15 4.43,-71l11.25 -6.43 -11.25 6.43c-22.19,-14.17 -24.82,-44.7 -37.4,-73.21 -148.14,90.97 -45.94,16.44 -100.57,104.88z"></path>
   <path class="fil0" d="M4485.3 875.53l15.84 19.68 34.62 -8.53 2.25 3.93 -39.75 23.41c12.27,35.7 -2.39,39.37 -20.06,69.17l76.66 143.13 9.41 -58.36 -1.63 -66.37c-2.28,-18.8 6.21,-80.7 7.87,-107.68 -1.48,-1.34 -3.52,-3.34 -4.45,-4.03 -0.96,-0.73 -3.77,-3.13 -4.85,-3.92 -1.16,-0.83 -4.43,-2.9 -5.51,-3.64 -1.43,-0.98 -10.02,-5.41 -12.61,-6.74 40.42,-10.27 40.33,-21.01 33.14,-62.66l-43.35 -19.4 -32.53 8.75 -15.03 73.25z"></path>
   <path class="fil0" d="M5708.49 1309.01l-9.14 -63.83 -28.65 -72.81c-16.54,-24.35 -29.49,-17.55 -63.55,-13.11 -23.42,28.61 -22.31,45.08 -25.61,82.95 88.69,3.89 29.91,72.73 126.96,66.8z"></path>
   <path class="fil0" d="M4493.66 694.36c27.63,-18.12 28.02,-32.11 4.56,-57.4 -10.45,5.42 -16.71,6.79 -19.18,22.77 -4.77,30.89 6.39,27.68 14.63,34.63z"></path>
  </g>
 </g>
</svg>